<svg xmlns="http://www.w3.org/2000/svg" viewBox="0 0 500 500"><g id="freepik--Lines--inject-10"><g id="freepik--lines--inject-10"><path d="M161.41,372.24c-10.3-7.63-19.28-18.1-22-30.89C136,325,144.31,309.84,156.13,299a107.2,107.2,0,0,1,14.14-10.65c-14.84,7.86-29.32,20.52-33.36,37.6-4.82,19.59,7,38,22.21,49.34,44.74,33.37,123.55,34,170.61,5.12C282.21,405.34,205.4,404.25,161.41,372.24ZM363.35,327c-3.53-20-20.5-34.24-37.69-43-38.08-19.3-87.59-20.84-127.76-7.34,41-9.92,87.82-8,126,10.82,20.29,9.93,41.35,29.3,37.23,54-1.56,9.42-6.6,18-13,25C358.94,356.63,366.09,341.78,363.35,327Z" style="fill:#195CF1;opacity:0.2"></path><path d="M337.33,278.46c-52.76-27.39-129.35-26.53-180.56,4.06-13.13,8.19-25.32,19.26-31.35,33.77,6.6-14.16,18.83-24.77,32.11-32.52,51-29,126.44-29.36,178.53-2.89,19.7,10.38,39.68,27.52,41.32,51.18,1,14.5-6.12,28.42-16.05,38.62a101.76,101.76,0,0,1-20.52,16.1A96.72,96.72,0,0,0,362,371.3c9.14-8.86,16.06-20.54,17.21-33.4C381.52,311,359.4,289.93,337.33,278.46ZM176.79,393.71c-16-6.47-31.63-15.44-42.89-28.81a53.18,53.18,0,0,1-11.69-23.15,45.53,45.53,0,0,0,3.71,12.67c13.62,29.58,51.36,45.43,81.61,51.38,32.44,6.37,66.63,5,98.27-4.65C263.3,410.91,217.61,409.5,176.79,393.71Z" style="fill:#fff;opacity:0.5"></path><path d="M308.45,297.06c-35.15-18.25-86.19-17.68-120.31,2.71-8.75,5.45-16.87,12.83-20.89,22.5,4.4-9.44,12.54-16.51,21.39-21.67,34-19.34,84.25-19.57,119-1.93,13.13,6.92,26.44,18.34,27.54,34.1.69,9.67-4.08,19-10.69,25.74a67.85,67.85,0,0,1-13.68,10.73,64.24,64.24,0,0,0,14.09-10.32c6.1-5.9,10.7-13.68,11.47-22.25C337.9,318.74,323.16,304.7,308.45,297.06Zm-107,76.8c-10.68-4.32-21.08-10.29-28.58-19.2a35.38,35.38,0,0,1-7.79-15.43,30.6,30.6,0,0,0,2.47,8.45C176.66,367.39,201.8,378,222,381.91a135.59,135.59,0,0,0,65.48-3.1C259.12,385.32,228.68,384.38,201.48,373.86Z" style="fill:#fff;opacity:0.5"></path><path d="M353.25,274.75c30.94,18.41,54.67,50.95,33.81,86.19-23.41,38.08-81.95,53.89-124.15,56.11-29.73,1.73-59.88-1.45-88.33-10.49,57.38,20.68,131.94,18,184.52-14.44C412.89,357.81,408.13,304.62,353.25,274.75Zm-202.33-.54c24.46-13.17,52.26-19.73,79.84-22.13,31.28-2.55,63.15.28,93.21,9.57C267.2,241.52,192,244.43,140.34,277c-53.4,34.46-48.08,87.34,6.41,117-27.63-16.47-51.63-45.57-37.52-78.92C117.19,296.71,133.59,283.41,150.92,274.21Z" style="fill:#195CF1;opacity:0.30000000000000004"></path><path d="M322.53,292.49c21.73,12.93,38.4,35.79,23.75,60.55-16.45,26.74-57.57,37.85-87.21,39.41a172.38,172.38,0,0,1-62-7.37c40.3,14.53,92.68,12.65,129.62-10.14C364.42,350.83,361.08,313.47,322.53,292.49Zm-142.14-.38c17.19-9.25,36.72-13.86,56.09-15.54A174,174,0,0,1,302,283.29c-39.88-14.15-92.69-12.1-129,10.75-37.51,24.21-33.77,61.35,4.51,82.19-19.41-11.57-36.27-32-26.36-55.44C156.7,307.91,168.22,298.57,180.39,292.11Z" style="fill:#195CF1;opacity:0.30000000000000004"></path><g style="opacity:0.30000000000000004"><path d="M224.6,305.69c19.89-6.69,44.4-5.93,63.25,3.63,8.51,4.35,16.92,11.43,18.66,21.31,1.36,7.33-2.18,14.68-7.53,19.53a25,25,0,0,0,6.42-12.39C307.44,325.55,297,316,287,311c-18.89-9.3-42.08-10.27-62.37-5.35Z" style="fill:#195CF1"></path></g><path d="M295.47,305.42c-27.24-14.15-66.79-13.7-93.24,2.1-6.78,4.23-13.07,9.94-16.18,17.44,3.4-7.32,9.72-12.8,16.58-16.8,26.33-15,65.29-15.16,92.19-1.49C305,312,315.31,320.88,316.16,333.1c.53,7.48-3.17,14.68-8.29,19.94a52.76,52.76,0,0,1-10.6,8.31,49.76,49.76,0,0,0,10.92-8c4.72-4.58,8.3-10.6,8.89-17.25C318.29,322.22,306.87,311.34,295.47,305.42Zm-82.9,59.51c-8.28-3.34-16.33-8-22.15-14.87a27.43,27.43,0,0,1-6-12,23.33,23.33,0,0,0,1.91,6.55c7,15.27,26.52,23.45,42.15,26.53a105.18,105.18,0,0,0,50.74-2.4C257.24,373.81,233.65,373.09,212.57,364.93Z" style="fill:#fff;opacity:0.5"></path><path d="M272.65,320.1c-13.36-6.94-32.75-6.72-45.72,1-3.32,2.07-6.41,4.87-7.93,8.55a19.46,19.46,0,0,1,8.13-8.24c12.91-7.34,32-7.43,45.2-.73,5,2.63,10,7,10.46,13,.26,3.67-1.55,7.2-4.06,9.78a26.08,26.08,0,0,1-5.2,4.08,24.52,24.52,0,0,0,5.36-3.92,13.78,13.78,0,0,0,4.35-8.46C283.84,328.34,278.24,323,272.65,320.1ZM232,349.28A27.31,27.31,0,0,1,221.14,342a13.57,13.57,0,0,1-3-5.87,11.61,11.61,0,0,0,.94,3.21c3.45,7.49,13,11.51,20.67,13a51.51,51.51,0,0,0,24.88-1.18A56.19,56.19,0,0,1,232,349.28Z" style="fill:#fff;opacity:0.5"></path><path d="M282.35,315.83c9.57,5.7,16.92,15.77,10.46,26.68-7.24,11.79-25.36,16.68-38.42,17.37a76,76,0,0,1-27.34-3.25c17.76,6.4,40.83,5.57,57.11-4.47C300.8,341.54,299.33,325.08,282.35,315.83Zm-62.62-.16c7.57-4.08,16.17-6.11,24.71-6.85a76.9,76.9,0,0,1,28.85,3c-17.57-6.23-40.84-5.33-56.84,4.74-16.53,10.66-14.88,27,2,36.21-8.56-5.1-16-14.1-11.62-24.42C209.29,322.63,214.36,318.51,219.73,315.67Z" style="fill:#195CF1;opacity:0.30000000000000004"></path></g></g><g id="freepik--Splash--inject-10"><path d="M174.46,295c1.73-2.87,3.84-5.56,5.37-8.55,1.35-2.63,3.18-4.18,2.79-7-.36-2.66-3.12-3.46-5.67-4.35a9.65,9.65,0,0,1-3.45-2.13,4,4,0,0,1-1.39-2.46,3.39,3.39,0,0,1,1.1-2.63,5.88,5.88,0,0,1,5.35-1.41,8.54,8.54,0,0,1,4.73,3.1c1,1.23,1.69,2.64,2.6,3.92a7,7,0,0,0,3.61,2.87,6.33,6.33,0,0,0,6.6-1.94,9.79,9.79,0,0,0,1.72-6.52,20.75,20.75,0,0,0-2.12-8.5c-1.37-2.8-3.37-5.29-4.43-8.23a18.51,18.51,0,0,1-.74-8.56,17.36,17.36,0,0,1,4.17-9.74,10.38,10.38,0,0,1,9.74-3.25c2.62.66,4.95,2.85,5.18,5.53.3,3.41-2.57,6.15-4,9.28-2.58,5.83.16,12.54,3.09,18.2,4.9,9.43,15.71,16.37,23.83,5.65,3.32-4.39,3-11.36,7-14.84s10.47-1.8,14.08,1.63,6,8.46,9.86,11.88A18.38,18.38,0,0,0,294,250.55c-.89-6.17-4.48-13.6.16-17.77,3-2.67,8-1.78,10.81,1.06s3.8,7,3.95,11a34.31,34.31,0,0,1-3.22,15.83c-1.74,3.7-4.18,7.17-5,11.18s.76,9,4.66,10.21c6.12,2,11.39-6.16,17.82-5.88a3.57,3.57,0,0,1,2.48,1c1.33,1.47.34,3.76-.55,5.53-2.77,5.58-5.43,15.25-1,20.59a11,11,0,0,0,10.82,3.62c-3,.72-3.35,7.68-4.12,9.91A44.91,44.91,0,0,1,325.06,328a73.13,73.13,0,0,0-31.49-28c-12.07-5.57-25.41-7.72-38.64-9a139.61,139.61,0,0,0-15.57-.8,90.2,90.2,0,0,0-42.42,11.33c-7.15,4-14.05,9.32-17.13,16.9-.81,2-1.45,4.28-3.24,5.5-4.55,3.1-5.33-4.17-5.23-7.14.19-5.52-1-11.48.78-16.89A23.72,23.72,0,0,1,174.46,295Z" style="fill:#195CF1"></path><path d="M174.46,295c1.73-2.87,3.84-5.56,5.37-8.55,1.35-2.63,3.18-4.18,2.79-7-.36-2.66-3.12-3.46-5.67-4.35a9.65,9.65,0,0,1-3.45-2.13,4,4,0,0,1-1.39-2.46,3.39,3.39,0,0,1,1.1-2.63,5.88,5.88,0,0,1,5.35-1.41,8.54,8.54,0,0,1,4.73,3.1c1,1.23,1.69,2.64,2.6,3.92a7,7,0,0,0,3.61,2.87,6.33,6.33,0,0,0,6.6-1.94,9.79,9.79,0,0,0,1.72-6.52,20.75,20.75,0,0,0-2.12-8.5c-1.37-2.8-3.37-5.29-4.43-8.23a18.51,18.51,0,0,1-.74-8.56,17.36,17.36,0,0,1,4.17-9.74,10.38,10.38,0,0,1,9.74-3.25c2.62.66,4.95,2.85,5.18,5.53.3,3.41-2.57,6.15-4,9.28-2.58,5.83.16,12.54,3.09,18.2,4.9,9.43,15.71,16.37,23.83,5.65,3.32-4.39,3-11.36,7-14.84s10.47-1.8,14.08,1.63,6,8.46,9.86,11.88A18.38,18.38,0,0,0,294,250.55c-.89-6.17-4.48-13.6.16-17.77,3-2.67,8-1.78,10.81,1.06s3.8,7,3.95,11a34.31,34.31,0,0,1-3.22,15.83c-1.74,3.7-4.18,7.17-5,11.18s.76,9,4.66,10.21c6.12,2,11.39-6.16,17.82-5.88a3.57,3.57,0,0,1,2.48,1c1.33,1.47.34,3.76-.55,5.53-2.77,5.58-5.43,15.25-1,20.59a11,11,0,0,0,10.82,3.62c-3,.72-3.35,7.68-4.12,9.91A44.91,44.91,0,0,1,325.06,328a73.13,73.13,0,0,0-31.49-28c-12.07-5.57-25.41-7.72-38.64-9a139.61,139.61,0,0,0-15.57-.8,90.2,90.2,0,0,0-42.42,11.33c-7.15,4-14.05,9.32-17.13,16.9-.81,2-1.45,4.28-3.24,5.5-4.55,3.1-5.33-4.17-5.23-7.14.19-5.52-1-11.48.78-16.89A23.72,23.72,0,0,1,174.46,295Z" style="fill:#fff;opacity:0.2"></path><path d="M195.94,274.54a5,5,0,0,0,1.48-.8c2.05-1.62,2.41-4.58,2.23-7.19a27,27,0,0,0-1.59-7.42c-.73-2-1.72-4-1.62-6.14a7.41,7.41,0,0,1,2.17-4.7c.9-.92,2.11-1.94,1.82-3.2-.37-1.66-2.69-1.62-4.28-2.23-2.65-1-3.54-4.56-2.59-7.23a11.86,11.86,0,0,1,2.9-4.3,11,11,0,0,0-1.76,1.5,17.36,17.36,0,0,0-4.17,9.74,18.38,18.38,0,0,0,.74,8.56c1.06,2.94,3.06,5.43,4.43,8.23a20.75,20.75,0,0,1,2.12,8.5,9.79,9.79,0,0,1-1.72,6.52Z" style="fill:#195CF1"></path><path d="M330.2,307a10.71,10.71,0,0,1-5.88,4.29c-5.29,1.28-10.15-2.88-14.41-6.26-11.07-8.8-24.56-13.94-38.37-16.49-13.18-2.44-27.09-3.12-40.35-1-14.59,2.33-28.48,7.81-41.67,14.32-2.6,1.29-5.62,2.64-8.28,1.48-2.88-1.25-3.88-5-3.18-8s2.65-5.64,4.3-8.31,3.07-5.74,2.52-8.82a7.61,7.61,0,0,0-4.08-5.43c-1.69-.82-3.7-1-5.14-2.22a3.23,3.23,0,0,1-.81-3.69,5.14,5.14,0,0,0-1.64,1.08,3.39,3.39,0,0,0-1.1,2.63,4,4,0,0,0,1.39,2.46,9.6,9.6,0,0,0,3.46,2.13c2.54.89,5.3,1.69,5.66,4.35.39,2.83-1.44,4.38-2.79,7-1.53,3-3.64,5.68-5.37,8.55a23.72,23.72,0,0,0-2.34,4.9c-1.76,5.41-.59,11.37-.78,16.89-.1,3,.68,10.24,5.23,7.14,1.79-1.22,2.43-3.49,3.24-5.5,3.08-7.58,10-12.92,17.13-16.9a90.2,90.2,0,0,1,42.42-11.33,139.61,139.61,0,0,1,15.57.8c13.23,1.28,26.57,3.43,38.64,9a73.13,73.13,0,0,1,31.49,28,44.91,44.91,0,0,0,5.71-11.13c.77-2.23,1.16-9.19,4.12-9.91A10.6,10.6,0,0,1,330.2,307Z" style="fill:#195CF1"></path><path d="M249.13,252.65a5.7,5.7,0,0,1,1,0c-3.41-1.61-7.52-1.82-10.52.77-4,3.48-3.72,10.45-7,14.84-4.07,5.37-8.81,6.31-13.15,4.72a5.74,5.74,0,0,0,.47.35,7.44,7.44,0,0,0,5,.73c5.66-.85,10.33-5.08,13.31-10a80.25,80.25,0,0,1,4.22-7.09C244.05,254.79,246.39,252.91,249.13,252.65Z" style="fill:#195CF1"></path><path d="M301.48,251.13a3.35,3.35,0,0,0-.18-3.56c-.85-1-2.31-1.12-3.55-1.56a7.67,7.67,0,0,1-4.47-4.71,11.79,11.79,0,0,1-.22-6.61,9.66,9.66,0,0,1,.35-1.15c-3.51,4.27-.27,11.2.56,17a18.88,18.88,0,0,1-9.48,18.82c-.26.14-.54.26-.81.39a8.1,8.1,0,0,0,1-.24c3.45-1,6.13-3.73,8.26-6.63s3.84-6.1,6.23-8.79A13.19,13.19,0,0,0,301.48,251.13Z" style="fill:#195CF1"></path><path d="M324.07,303.3c-4.39-5.34-1.73-15,1-20.59.89-1.77,1.88-4.06.55-5.53a3.58,3.58,0,0,0-2.49-1,6.54,6.54,0,0,0-.77,0c1.57,1.73.63,4.52-.41,6.64a36.9,36.9,0,0,0-3.51,9c-.61,3.17-.27,6.67,1.68,9.24a7.73,7.73,0,0,0,4.5,2.83C324.46,303.72,324.25,303.52,324.07,303.3Z" style="fill:#195CF1"></path><path d="M198.81,232.76a1.82,1.82,0,0,0-.7,1.67c.29,1.15,2,1.18,2.8,2s.71,2.5,1.73,3.17a2.42,2.42,0,0,0,2.83-.62,5.2,5.2,0,0,0,1.53-5.17C205.84,230.08,201.22,230.59,198.81,232.76Z" style="fill:#fff;opacity:0.2"></path><path d="M211.06,273.21c4.64,4.37,10.67,6.9,16.86,4.29.53-.23,1.14-.82.78-1.27,0,0-3.82.47-4.26.44-8.67-.59-15.89-8.85-18.7-16.58-.45-1.24-.82-3.69-1.85-4.58-1.24-1.08-.93.71-.8,1.55a28.43,28.43,0,0,0,1.25,5.61,27,27,0,0,0,6.7,10.52Z" style="fill:#fff;opacity:0.2"></path><path d="M245.58,256.52a3,3,0,0,0-.67,1.55,3,3,0,0,0,1.27,2.43,10.59,10.59,0,0,0,2.54,1.27,29.77,29.77,0,0,1,8.9,5.73,1.43,1.43,0,0,0,.86.49.94.94,0,0,0,.85-.85,2.61,2.61,0,0,0-.26-1.28,31.32,31.32,0,0,0-5.91-9.39C251,254.16,247.67,253.79,245.58,256.52Z" style="fill:#fff;opacity:0.2"></path><path d="M295.93,234.1a2.39,2.39,0,0,0-.64,2.41,4.75,4.75,0,0,0,1.57,2.2,22.18,22.18,0,0,0,4.65,2.93,7.72,7.72,0,0,1,3.12,4.63c.09.39.23.87.62.91a.72.72,0,0,0,.4-.12,2.46,2.46,0,0,0,.85-1.81c.47-3.46.09-7-2.4-9.6a7.65,7.65,0,0,0-5.38-2.63A4.15,4.15,0,0,0,295.93,234.1Z" style="fill:#fff;opacity:0.2"></path><path d="M314.52,281.09a26.08,26.08,0,0,1-3.37,1.72,13.27,13.27,0,0,1-9.23.18,10.74,10.74,0,0,0,7.37,3.26,19.2,19.2,0,0,0,8.07-1.53c1.93-.76,5.09-2.6,4.21-5.17C320.5,276.44,316.06,280.21,314.52,281.09Z" style="fill:#fff;opacity:0.2"></path><path d="M176.15,268a1.11,1.11,0,0,0,.57.9,3.64,3.64,0,0,0,1,.36,9,9,0,0,1,1.93.8,12.45,12.45,0,0,0,1.6.88.43.43,0,0,0,.35,0,.41.41,0,0,0,.23-.28,1.85,1.85,0,0,0-.31-1.53,4.59,4.59,0,0,0-3.68-2.06,2,2,0,0,0-1.55.55A.59.59,0,0,0,176.15,268Z" style="fill:#fff;opacity:0.2"></path><path d="M298.75,237.77a19.79,19.79,0,0,0,2.5.83l2.14.61a1.24,1.24,0,0,0,.47.06.77.77,0,0,0,.6-.68c.39-2.88-4.42-6.06-6.84-4.39a1.83,1.83,0,0,0-.66,2.23,2.42,2.42,0,0,0,1,.94A7.16,7.16,0,0,0,298.75,237.77Z" style="fill:#fff;opacity:0.2"></path><path d="M202.83,235a3.12,3.12,0,0,1,.27,1.08c0,.55-.06,1.2.36,1.56a1,1,0,0,0,1.27,0,2.55,2.55,0,0,0,.76-1.13,4.26,4.26,0,0,0,.28-2.93,2.07,2.07,0,0,0-2.55-1.39C201.59,232.71,202.33,233.91,202.83,235Z" style="fill:#fff;opacity:0.2"></path><path d="M247.39,257.89a1.78,1.78,0,0,0,.7.63l5.54,3.31a.53.53,0,0,0,.35.12c.22,0,.33-.26.39-.47a4,4,0,0,0-1.72-4.05c-1-.85-2.33-1.71-3.7-1.39C248.1,256.24,246.86,256.81,247.39,257.89Z" style="fill:#fff;opacity:0.2"></path><circle cx="331.95" cy="231.07" r="9.69" transform="translate(50.69 521.72) rotate(-80.78)" style="fill:#195CF1"></circle><circle cx="331.95" cy="231.07" r="9.69" transform="translate(50.69 521.72) rotate(-80.78)" style="fill:#fff;opacity:0.4"></circle><path d="M332,221.38a9.69,9.69,0,1,0,9.69,9.69,9.32,9.32,0,0,0-.17-1.77c.56,2.86-4,7-9.52,4.15S327.44,223.18,332,221.38Z" style="fill:#195CF1"></path><path d="M332,221.38a9.69,9.69,0,1,0,9.69,9.69,9.32,9.32,0,0,0-.17-1.77c.56,2.86-4,7-9.52,4.15S327.44,223.18,332,221.38Z" style="fill:#fff;opacity:0.2"></path><path d="M340.16,236.21c-.19.24-3.56,4.32-10,2.19-6.66-2.2-7.09-11.35-3.48-15.44a9.69,9.69,0,1,0,13.51,13.25Z" style="fill:#195CF1"></path><path d="M333.39,228.06a13.82,13.82,0,0,1,1.33,1.43,9.59,9.59,0,0,1,1.45,5.26c.07,1.18.89,2.06,2,1.27a4,4,0,0,0,1.38-2.37,9.58,9.58,0,0,0-.46-6.55,7.55,7.55,0,0,0-3.81-3.64,2.66,2.66,0,0,0-2.94.47c-1,1.16-.41,2.56.48,3.57C333,227.69,333.21,227.88,333.39,228.06Z" style="fill:#fff;opacity:0.30000000000000004"></path><path d="M334.11,238.32a.91.91,0,0,0,.45.71,1.05,1.05,0,0,0,.31.12,1.65,1.65,0,0,0,2-1.11,1,1,0,0,0-.95-1.32,1.87,1.87,0,0,0-1.41.62,1.33,1.33,0,0,0-.36.88Z" style="fill:#fff;opacity:0.30000000000000004"></path><path d="M263.61,332.76a6.37,6.37,0,1,1-6.37-6.37A6.38,6.38,0,0,1,263.61,332.76Z" style="fill:#195CF1"></path><path d="M263.61,332.76a6.37,6.37,0,1,1-6.37-6.37A6.38,6.38,0,0,1,263.61,332.76Z" style="fill:#fff;opacity:0.6000000000000001"></path><path d="M257.24,326.39a6.38,6.38,0,1,0,6.37,6.37,6.45,6.45,0,0,0-.11-1.17c.37,1.89-2.66,4.61-6.26,2.74S254.28,327.57,257.24,326.39Z" style="fill:#195CF1"></path><path d="M257.24,326.39a6.38,6.38,0,1,0,6.37,6.37,6.45,6.45,0,0,0-.11-1.17c.37,1.89-2.66,4.61-6.26,2.74S254.28,327.57,257.24,326.39Z" style="fill:#fff;opacity:0.4"></path><path d="M262.64,336.14c-.13.16-2.34,2.85-6.6,1.44s-4.66-7.46-2.29-10.15a6.37,6.37,0,1,0,8.89,8.71Z" style="fill:#195CF1;opacity:0.5"></path><path d="M258.19,330.78a8.57,8.57,0,0,1,.87.94,6.3,6.3,0,0,1,1,3.47c0,.77.58,1.35,1.34.83a2.7,2.7,0,0,0,.91-1.56,6.27,6.27,0,0,0-.31-4.31,4.93,4.93,0,0,0-2.5-2.39,1.75,1.75,0,0,0-1.94.31c-.67.76-.26,1.68.32,2.34C258,330.54,258.07,330.66,258.19,330.78Z" style="fill:#fff;opacity:0.30000000000000004"></path><path d="M258.67,337.53a.6.6,0,0,0,.29.47.7.7,0,0,0,.2.08,1.09,1.09,0,0,0,1.29-.73.67.67,0,0,0-.62-.87,1.19,1.19,0,0,0-.93.41.89.89,0,0,0-.24.58A.13.13,0,0,0,258.67,337.53Z" style="fill:#fff;opacity:0.30000000000000004"></path><path d="M167.63,249.12a7.15,7.15,0,1,1-10.11.53A7.15,7.15,0,0,1,167.63,249.12Z" style="fill:#195CF1"></path><path d="M167.63,249.12a7.15,7.15,0,1,1-10.11.53A7.15,7.15,0,0,1,167.63,249.12Z" style="fill:#fff;opacity:0.4"></path><path d="M157.52,249.65a7.15,7.15,0,1,0,10.11-.53,6.57,6.57,0,0,0-1.06-.78c1.86,1.11,1.84,5.67-2.43,7.28S156.28,253,157.52,249.65Z" style="fill:#195CF1"></path><path d="M157.52,249.65a7.15,7.15,0,1,0,10.11-.53,6.57,6.57,0,0,0-1.06-.78c1.86,1.11,1.84,5.67-2.43,7.28S156.28,253,157.52,249.65Z" style="fill:#fff;opacity:0.2"></path><path d="M169.72,252.47c0,.23.61,4.09-3.76,6.59s-9.73-1.72-10.19-5.72a7.15,7.15,0,1,0,13.95-.87Z" style="fill:#195CF1"></path><path d="M161.9,252.15a9.89,9.89,0,0,1,1.44,0,7.12,7.12,0,0,1,3.61,1.8c.68.55,1.56.53,1.7-.49a3,3,0,0,0-.62-1.93,7.07,7.07,0,0,0-3.82-3,5.64,5.64,0,0,0-3.88.29,2,2,0,0,0-1.19,1.85c.13,1.13,1.2,1.49,2.19,1.5Z" style="fill:#fff;opacity:0.30000000000000004"></path><path d="M167.89,256.83a.67.67,0,0,0,.61.11.53.53,0,0,0,.21-.11,1.23,1.23,0,0,0,.37-1.63.77.77,0,0,0-1.2-.13,1.38,1.38,0,0,0-.35,1.08,1,1,0,0,0,.3.64Z" style="fill:#fff;opacity:0.30000000000000004"></path><path d="M163.57,227.74a3.65,3.65,0,1,1-5.17.26A3.66,3.66,0,0,1,163.57,227.74Z" style="fill:#195CF1"></path><path d="M163.57,227.74a3.65,3.65,0,1,1-5.17.26A3.66,3.66,0,0,1,163.57,227.74Z" style="fill:#fff;opacity:0.4"></path><path d="M158.4,228a3.66,3.66,0,1,0,5.17-.26,3.27,3.27,0,0,0-.54-.4c.94.56.93,2.89-1.24,3.71A2.54,2.54,0,0,1,158.4,228Z" style="fill:#195CF1"></path><path d="M158.4,228a3.66,3.66,0,1,0,5.17-.26,3.27,3.27,0,0,0-.54-.4c.94.56.93,2.89-1.24,3.71A2.54,2.54,0,0,1,158.4,228Z" style="fill:#fff;opacity:0.2"></path><path d="M164.63,229.45a3.36,3.36,0,0,1-1.92,3.36c-2.3,1.31-5-.88-5.2-2.92a3.65,3.65,0,1,0,7.12-.44Z" style="fill:#195CF1"></path><path d="M160.64,229.29a3.66,3.66,0,0,1,.74,0,3.58,3.58,0,0,1,1.84.92c.34.28.8.27.86-.25a1.52,1.52,0,0,0-.31-1,3.59,3.59,0,0,0-2-1.52,2.82,2.82,0,0,0-2,.14,1,1,0,0,0-.61.95c.07.57.61.76,1.12.76Z" style="fill:#fff;opacity:0.30000000000000004"></path><path d="M163.7,231.67a.32.32,0,0,0,.31.06.3.3,0,0,0,.11-.06.62.62,0,0,0,.18-.83.39.39,0,0,0-.61-.07.76.76,0,0,0-.18.56.49.49,0,0,0,.16.32Z" style="fill:#fff;opacity:0.30000000000000004"></path><path d="M374.35,270.31a3.65,3.65,0,1,1-4.49-2.57A3.65,3.65,0,0,1,374.35,270.31Z" style="fill:#195CF1"></path><path d="M374.35,270.31a3.65,3.65,0,1,1-4.49-2.57A3.65,3.65,0,0,1,374.35,270.31Z" style="fill:#fff;opacity:0.4"></path><path d="M369.86,267.74a3.65,3.65,0,1,0,4.49,2.57,3.41,3.41,0,0,0-.24-.63c.49,1-.78,2.94-3.05,2.45A2.54,2.54,0,0,1,369.86,267.74Z" style="fill:#195CF1"></path><path d="M369.86,267.74a3.65,3.65,0,1,0,4.49,2.57,3.41,3.41,0,0,0-.24-.63c.49,1-.78,2.94-3.05,2.45A2.54,2.54,0,0,1,369.86,267.74Z" style="fill:#fff;opacity:0.2"></path><path d="M374.32,272.33a3.37,3.37,0,0,1-3.43,1.78c-2.65-.14-3.71-3.42-2.8-5.27a3.65,3.65,0,1,0,6.23,3.49Z" style="fill:#195CF1"></path><path d="M371.05,270a6,6,0,0,1,.63.39,3.75,3.75,0,0,1,1.05,1.77c.14.42.52.66.86.26a1.52,1.52,0,0,0,.27-1,3.61,3.61,0,0,0-.82-2.34,2.87,2.87,0,0,0-1.74-.95,1,1,0,0,0-1,.47c-.25.52.11,1,.53,1.25Z" style="fill:#fff;opacity:0.30000000000000004"></path><path d="M372.33,273.69a.36.36,0,0,0,.23.22h.13a.62.62,0,0,0,.6-.6.39.39,0,0,0-.48-.39.72.72,0,0,0-.45.37.5.5,0,0,0,0,.36A0,0,0,0,0,372.33,273.69Z" style="fill:#fff;opacity:0.30000000000000004"></path><path d="M273.19,326c-.08-5-2.67-7.6-9.85-13.24-7.92-6.23-7.91-11.23-13.34-11.23s-5.42,5-13.34,11.23c-7.18,5.64-9.77,8.22-9.85,13.24-.1,3.5,2.16,7,6.79,9.7,9.06,5.23,23.74,5.23,32.8,0C271,333,273.29,329.46,273.19,326Z" style="fill:#195CF1"></path><path d="M273.19,326c-.08-5-2.67-7.6-9.85-13.24-7.92-6.23-7.91-11.23-13.34-11.23s-5.42,5-13.34,11.23c-7.18,5.64-9.77,8.22-9.85,13.24-.1,3.5,2.16,7,6.79,9.7,9.06,5.23,23.74,5.23,32.8,0C271,333,273.29,329.46,273.19,326Z" style="fill:#fff;opacity:0.35000000000000003"></path><path d="M263,335.12a27.09,27.09,0,0,1-22.34-3.29,11.15,11.15,0,0,1-4.47-5.1c-2.25-6.11,3.76-10.83,6.45-15.55,1.19-2.08,2-4.39,3.19-6.44a10.41,10.41,0,0,1,2.84-3.14c-4.19.77-4.81,5.43-12,11.12s-9.77,8.22-9.85,13.24c-.1,3.5,2.16,7,6.79,9.7,9.06,5.23,23.74,5.23,32.8,0a14.46,14.46,0,0,0,5.76-5.53A21.84,21.84,0,0,1,263,335.12Z" style="fill:#195CF1;opacity:0.35000000000000003"></path><path d="M250.52,303.76a2.85,2.85,0,0,0-.83,1.05,6.1,6.1,0,0,0-.73,3.59,4.34,4.34,0,0,0,1.84,3.11,5.66,5.66,0,0,0,2.52.8c1.17.14,2.57,0,3.2-1a2.47,2.47,0,0,0,.1-2.19,7.41,7.41,0,0,0-1.24-1.9l-2.16-2.66C252.6,303.77,251.47,303.08,250.52,303.76Z" style="fill:#fff;opacity:0.30000000000000004"></path><path d="M256.81,315.27a.77.77,0,0,0,0,.15c-.56,4.24,3.79,5.54,6,8.22a7,7,0,0,1,1.81,4.44,8.14,8.14,0,0,1-1.83,4.65c-1.1,1.51.14,1.87,1.38,1.4a9.8,9.8,0,0,0,3.75-2.51,9.32,9.32,0,0,0,2.1-9c-.68-2.13-2.76-4.11-4.3-5.63S257.62,310,256.81,315.27Z" style="fill:#fff;opacity:0.30000000000000004"></path><path d="M181.54,355.77c-8.58-7.5-11.89-14.83-14-25.69-1.13-5.68-6.94-8.77-6.33-14.73.37-3.56,2.16-6.81,3.23-10.23a26.33,26.33,0,0,0,1-10.8,11.18,11.18,0,0,0-1.29-4.43c-2.82-4.77-8.43-2.77-13.07-2.65-3.9.1-8.94-.24-11.14-4a8.35,8.35,0,0,1,.71-9.08c1.93-2.41,5.36-3,8.44-2.85,17.2.92,25.3,17.23,26,32.92.23,5.11-.16,10.44,1.94,15.1,4.52,10,16.86,2.35,20.68,12.53,1,2.7,1.26,5.62,2,8.41a21,21,0,0,0,9.73,13,6.42,6.42,0,0,0,6.17.43,6.76,6.76,0,0,0,2.7-3.06c2.2-4.58.89-10,.11-15s-.62-11,3.39-14.11c4.43-3.45,9.47-2,12.89,2.07,3.81,4.54,1.8,7.76-.14,13.07a39.16,39.16,0,0,0-2.09,8.75c-.44,3.63,0,8,3.17,9.85,3.39,2,7.69-.26,10.47-3,1.63-1.61,3.31-6.65,5.87-7.14,4.31-.83,6.21,10.4,9.12,13.18,2.72,2.59,6.95,4,10.31,2.3,2.35-1.16,3.84-3.53,5.13-5.82a143.14,143.14,0,0,0,10.77-23.85c.77-2.22,1.55-4.58,3.32-6.13s4.86-1.85,6.27,0c.42.57.65,1.26,1.1,1.8,1.28,1.53,3.87,1.19,5.36-.14s2.19-3.31,2.95-5.16a50.92,50.92,0,0,1,14.61-19.93c1.54-1.29,4.7-1.87,4.83.13a3.06,3.06,0,0,1-.8,1.85,24.58,24.58,0,0,0-4.43,11.43c-.11,1-.08,2.12.71,2.67,1,.68,2.26,0,3.19-.73a35.8,35.8,0,0,0,12.36-18.62c1.81-6.63,1.94-14.29,6.81-19.13,5.35-5.31,15.55-4.19,19.61,2.15,1.51,2.35,2.18,5.46.92,8-1.63,3.23-5.63,4.24-9,5.53-7.93,3-14.33,9.34-18.7,16.63s-6.86,15.54-8.66,23.85a31.63,31.63,0,0,1-5.09,12.38C310.24,364.09,289.7,378,250,378S186.71,360.29,181.54,355.77Z" style="fill:#195CF1"></path><path d="M181.54,355.77c-8.58-7.5-11.89-14.83-14-25.69-1.13-5.68-6.94-8.77-6.33-14.73.37-3.56,2.16-6.81,3.23-10.23a26.33,26.33,0,0,0,1-10.8,11.18,11.18,0,0,0-1.29-4.43c-2.82-4.77-8.43-2.77-13.07-2.65-3.9.1-8.94-.24-11.14-4a8.35,8.35,0,0,1,.71-9.08c1.93-2.41,5.36-3,8.44-2.85,17.2.92,25.3,17.23,26,32.92.23,5.11-.16,10.44,1.94,15.1,4.52,10,16.86,2.35,20.68,12.53,1,2.7,1.26,5.62,2,8.41a21,21,0,0,0,9.73,13,6.42,6.42,0,0,0,6.17.43,6.76,6.76,0,0,0,2.7-3.06c2.2-4.58.89-10,.11-15s-.62-11,3.39-14.11c4.43-3.45,9.47-2,12.89,2.07,3.81,4.54,1.8,7.76-.14,13.07a39.16,39.16,0,0,0-2.09,8.75c-.44,3.63,0,8,3.17,9.85,3.39,2,7.69-.26,10.47-3,1.63-1.61,3.31-6.65,5.87-7.14,4.31-.83,6.21,10.4,9.12,13.18,2.72,2.59,6.95,4,10.31,2.3,2.35-1.16,3.84-3.53,5.13-5.82a143.14,143.14,0,0,0,10.77-23.85c.77-2.22,1.55-4.58,3.32-6.13s4.86-1.85,6.27,0c.42.57.65,1.26,1.1,1.8,1.28,1.53,3.87,1.19,5.36-.14s2.19-3.31,2.95-5.16a50.92,50.92,0,0,1,14.61-19.93c1.54-1.29,4.7-1.87,4.83.13a3.06,3.06,0,0,1-.8,1.85,24.58,24.58,0,0,0-4.43,11.43c-.11,1-.08,2.12.71,2.67,1,.68,2.26,0,3.19-.73a35.8,35.8,0,0,0,12.36-18.62c1.81-6.63,1.94-14.29,6.81-19.13,5.35-5.31,15.55-4.19,19.61,2.15,1.51,2.35,2.18,5.46.92,8-1.63,3.23-5.63,4.24-9,5.53-7.93,3-14.33,9.34-18.7,16.63s-6.86,15.54-8.66,23.85a31.63,31.63,0,0,1-5.09,12.38C310.24,364.09,289.7,378,250,378S186.71,360.29,181.54,355.77Z" style="fill:#fff;opacity:0.4"></path><path d="M249.84,375.59c-20.4-1.18-43.32-8.29-59.91-20.23a40.2,40.2,0,0,1-14.66-20.11c-1.58-4.71-.68-8.05-4.07-11.7-2.11-2.26-5.71-3.75-7.34-6.46-1.37-2.27-1.23-5.41-.91-8a24.67,24.67,0,0,0-1.79,6.31c-.61,6,5.2,9,6.33,14.73,2.16,10.86,5.47,18.19,14,25.69C186.71,360.29,210.3,378,250,378c15.23,0,27.64-2.05,37.85-5.51C275.27,374.82,262.58,376.33,249.84,375.59Zm-15-16.6c2.76,1.14,6.07.06,8.23-2a14.73,14.73,0,0,0,3.37-5.28,5.15,5.15,0,0,1-.42.48c-2.78,2.76-7.08,5-10.47,3-3.17-1.83-3.61-6.22-3.17-9.85.07-.58.16-1.16.26-1.73a18.8,18.8,0,0,0-2.19,6.83C230.22,353.87,231.73,357.68,234.89,359Zm-35.46-5.56a19.42,19.42,0,0,0,12.07,4,13.38,13.38,0,0,0,5.39-.92c4.27-1.83,6.49-6.46,8.35-10.73a19.8,19.8,0,0,0,1.78-5.52,6.66,6.66,0,0,0-1.55-5.43,27.11,27.11,0,0,0-3.53-2.41,8.11,8.11,0,0,1-3.13-6.66,21.09,21.09,0,0,0-.43,9.82c.78,5,2.09,10.41-.11,15a6.76,6.76,0,0,1-2.7,3.06,6.42,6.42,0,0,1-6.17-.43,21,21,0,0,1-9.73-13c-.71-2.79-1-5.71-2-8.41a9.49,9.49,0,0,0-1.44-2.61,10.47,10.47,0,0,1,.06,3.53c-.49,3.17-2,6.16-2.17,9.36A13.92,13.92,0,0,0,199.43,353.43Zm-35.29-63.54a11.18,11.18,0,0,1,1.29,4.43,27.46,27.46,0,0,1,.16,3,9.23,9.23,0,0,0,1.44-4.89c-.09-3.55-2.89-6.52-6.06-8.12s-6.74-2.18-10.13-3.22a10.68,10.68,0,0,1-4.38-2.27,4.43,4.43,0,0,1-1.32-4.53c.6-1.65,2.38-2.56,4.09-3l-.15,0c-3.08-.16-6.51.44-8.44,2.85a8.35,8.35,0,0,0-.71,9.08c2.2,3.78,7.24,4.12,11.14,4C155.71,287.12,161.32,285.12,164.14,289.89Zm199-8.8c-2.9-4.53-8.92-6.38-14.08-5.14a22.19,22.19,0,0,1,3.15.74,12.48,12.48,0,0,1,5.66,3.12c4.92,5.27-1.72,9.82-5.87,12.31-6.77,4.06-12.94,10.07-14.78,17.71,4.33-6.7,10.41-12.41,17.84-15.26,3.37-1.29,7.37-2.3,9-5.53C365.34,286.55,364.67,283.44,363.16,281.09Zm-59.84,45.34c-1.45,1.29-3.93,1.64-5.24.25,1,2.35,2.84,4.92,4.68,5.43,2.66.74,4-2.09,4.78-4.14q2.47-6.36,4.82-12.76c1.47-4,3.13-8.31,5.85-11.48a51,51,0,0,0-11.94,17.54C305.51,323.12,304.82,325.1,303.32,326.43Zm-16.05,4.44a143.14,143.14,0,0,1-10.77,23.85c-1.29,2.29-2.78,4.66-5.13,5.82-3.36,1.67-7.59.29-10.31-2.3-1.71-1.64-3.08-6.2-4.79-9.51,1.28,5.18,1,11.07,4.76,14.72a10.18,10.18,0,0,0,9.74,2.17c6.67-1.92,10.53-10.19,13-16.13,3-7.3,4.61-15.1,7.32-22.51a8.6,8.6,0,0,1,1.68-3.09c.12-.12.25-.23.38-.34a5.38,5.38,0,0,0-2.54,1.19C288.82,326.29,288,328.65,287.27,330.87Z" style="fill:#195CF1;opacity:0.30000000000000004"></path><path d="M142.68,274.66c-1,.87-1.75,2.42-1,3.57.82,1.35,2.8,1.17,4.37.95a40.64,40.64,0,0,1,12.26.13c.79.14,3.81,1.05,4.41.32,1-1.17-2.8-3.26-3.5-3.67C154.5,273.26,147.45,270.67,142.68,274.66Z" style="fill:#fff;opacity:0.30000000000000004"></path><path d="M163.33,311.07c-.29.87-.56,1.74-.8,2.62a7.87,7.87,0,0,0,.66,5.75c.47.88,1.64,2.39,2.81,1.94s1.44-2.27,1.43-3.34c0-1.45-.14-2.9-.15-4.33,0-1.64.12-3.28.14-4.91a7.42,7.42,0,0,0-.86-4.25c-.11-.16-.26-.33-.45-.3s-.31.24-.38.43C164.91,306.81,164.06,308.92,163.33,311.07Z" style="fill:#fff;opacity:0.30000000000000004"></path><path d="M187.43,327.45a3.21,3.21,0,0,0-2.33,1.14c-.94,1.27-.36,3.16.77,4.27a17.43,17.43,0,0,0,4,2.43,15.93,15.93,0,0,1,4.76,4c.59.74,1.69,3.56,2.87,3.21a.51.51,0,0,0,.29-.19.69.69,0,0,0,.08-.4l0-2.22c0-3.35-.6-6.48-2.87-9.07A9.12,9.12,0,0,0,187.43,327.45Z" style="fill:#fff;opacity:0.30000000000000004"></path><path d="M223.35,325.81a5.11,5.11,0,0,0,1.75,3.24,12,12,0,0,1,2.44,2.84c.64,1.27.85,3,2.18,3.52,1.18.44,2.44-.48,3.19-1.5,1.6-2.18,2.58-5.64,1.29-8.18-.89-1.74-3.68-4-5.71-4.06C226.31,321.6,223.28,323.41,223.35,325.81Z" style="fill:#fff;opacity:0.30000000000000004"></path><path d="M251.14,347.9a2.47,2.47,0,0,0-.27,2.12,8,8,0,0,0,1,2,49,49,0,0,1,4.07,8.37A6.88,6.88,0,0,0,257,362.5a4.31,4.31,0,0,0,.86-2.39,15.69,15.69,0,0,0-1.54-8.68C255.65,350.08,253,345.4,251.14,347.9Z" style="fill:#fff;opacity:0.30000000000000004"></path><path d="M291.31,327.07a2.5,2.5,0,0,0,1,1.84,17.79,17.79,0,0,0,1.78,1.19,8.33,8.33,0,0,1,2.82,3.19,4,4,0,0,0,.79,1.25,1,1,0,0,0,1.34.09,1.45,1.45,0,0,0,.3-1,10.91,10.91,0,0,0-.31-3.7,7.78,7.78,0,0,0-3.47-4.58C294,324.56,291.34,324.9,291.31,327.07Z" style="fill:#fff;opacity:0.30000000000000004"></path><path d="M345.68,280.22a13.26,13.26,0,0,0-4.4,9.28,1.44,1.44,0,0,0,.19.92,1.15,1.15,0,0,0,.65.39c1.82.52,3.58-.78,5.18-1.77a19.18,19.18,0,0,1,7.82-2.71c1.89-.21,4.06-.27,5.27-1.74,2.76-3.38-1.87-6.58-4.67-7.39C352.36,276.21,348.2,278,345.68,280.22Z" style="fill:#fff;opacity:0.30000000000000004"></path><path d="M350.14,280.9a2.45,2.45,0,0,0,1.44,2.28,10,10,0,0,0,4.64,1c1.88.07,3.71-1.53,2.74-3.42a4.78,4.78,0,0,0-4.22-2.27C353,278.4,350.48,278.81,350.14,280.9Z" style="fill:#fff;opacity:0.30000000000000004"></path><path d="M293,327.37a.9.9,0,0,0,.41.36l2.24,1.3a1.16,1.16,0,0,0,1,.22,1,1,0,0,0,.37-1.11,3,3,0,0,0-2.15-2.23C294.09,325.67,292.39,326.14,293,327.37Z" style="fill:#fff;opacity:0.30000000000000004"></path><path d="M227.3,324.47a2.12,2.12,0,0,0,0,1.84,7.73,7.73,0,0,0,1,1.62,19.93,19.93,0,0,1,1.44,2.39,2.61,2.61,0,0,0,1,1.29,1.92,1.92,0,0,0,2.18-.71,4.5,4.5,0,0,0,.33-5.13,7.11,7.11,0,0,0-1.65-1.68C230.41,323.22,228.17,323,227.3,324.47Z" style="fill:#fff;opacity:0.30000000000000004"></path><path d="M144.11,274.78A3.5,3.5,0,0,0,143,277a.9.9,0,0,0,.11.63.85.85,0,0,0,.65.26c1.37.05,2.48-1,3.77-1.5.65-.23,1.36-.3,2-.49.51-.14,1.08-.45,1.1-1a.93.93,0,0,0-.39-.72,2.12,2.12,0,0,0-.77-.33C147.86,273.4,145.43,273.57,144.11,274.78Z" style="fill:#fff;opacity:0.30000000000000004"></path><path d="M277.36,265.64a27.36,27.36,0,0,1-54.72,0c0-15.11,12.25-32.12,27.36-32.12S277.36,250.53,277.36,265.64Z" style="fill:#195CF1"></path><path d="M277.36,265.64a27.36,27.36,0,0,1-54.72,0c0-15.11,12.25-32.12,27.36-32.12S277.36,250.53,277.36,265.64Z" style="fill:#fff;opacity:0.30000000000000004"></path><path d="M250,233.52c-15.11,0-27.36,17-27.36,32.12a27.36,27.36,0,0,0,54.72,0,26.68,26.68,0,0,0-.47-5c1.59,8.1-11.41,19.75-26.89,11.73S237.28,238.6,250,233.52Z" style="fill:#195CF1;opacity:0.30000000000000004"></path><path d="M252.14,292.91c.4,0,.79-.07,1.18-.12l.5-.06c.44-.06.87-.13,1.31-.22l.29-.05c.52-.1,1.05-.23,1.57-.36l.32-.09,1.23-.37.41-.14q.6-.21,1.2-.45l.29-.12a26,26,0,0,0,2.91-1.41l.25-.14c.4-.23.79-.47,1.18-.72l.21-.13a26.49,26.49,0,0,0,2.63-2l.05,0q.6-.51,1.17-1l.11-.11a26.72,26.72,0,0,0,3.27-3.77l0-.06c.32-.45.63-.91.92-1.38h0c-.55.69-10.06,12.2-28.32,6.18-18.8-6.21-20.12-35.24-9.94-46.82-7.41,6.3-12.29,16.59-12.29,26.13a27.37,27.37,0,0,0,24.54,27.22c.94.09,1.88.14,2.82.14.55,0,1.1,0,1.65-.05Z" style="fill:#195CF1;opacity:0.6000000000000001"></path><path d="M254.08,254.19a37,37,0,0,1,3.76,4.06c3.09,4.19,3.8,9.65,4.09,14.86.2,3.32,2.5,5.79,5.75,3.56,2.17-1.49,3.23-4.13,3.9-6.68,1.59-6.11,1.48-12.83-1.3-18.5-2.07-4.23-6.23-8.63-10.75-10.28-2.76-1-6.24-1-8.32,1.34-2.86,3.26-1.14,7.21,1.38,10.07C253.07,253.16,253.57,253.68,254.08,254.19Z" style="fill:#fff;opacity:0.30000000000000004"></path><path d="M256.12,283.17a2.67,2.67,0,0,0,1.25,2,2.82,2.82,0,0,0,.88.32c2.29.47,5-.74,5.54-3.12a2.9,2.9,0,0,0-2.67-3.74,5.29,5.29,0,0,0-4,1.76,3.76,3.76,0,0,0-1,2.48A2.46,2.46,0,0,0,256.12,283.17Z" style="fill:#fff;opacity:0.30000000000000004"></path></g><g id="freepik--Drop--inject-10"><g id="freepik--water-drop--inject-10"><g id="freepik--drop--inject-10"><path d="M250,96.14c-25.61,29.82-45.89,59.18-45.89,83.57s20.54,44.16,45.89,44.16,45.89-19.77,45.89-44.16S275.61,126,250,96.14Z" style="fill:#195CF1"></path><path d="M250,96.14c-25.61,29.82-45.89,59.18-45.89,83.57s20.54,44.16,45.89,44.16,45.89-19.77,45.89-44.16S275.61,126,250,96.14Z" style="fill:#fff;opacity:0.2"></path><path d="M247,118c-4.56,5.43-6.12,12.91-6.46,20a46.33,46.33,0,0,0,2.29,18.13c3.14,8.58,10.6,16.14,20.24,16.28a14,14,0,0,0,11.68-5.9,19.25,19.25,0,0,0,2.76-9.64c.71-11.75-3.79-23.35-10.43-33.08-4.24-6.22-12.35-14-19.25-6.76C247.57,117.42,247.3,117.72,247,118Z" style="fill:#fff;opacity:0.2"></path><path d="M295.89,179.71a58.13,58.13,0,0,0-3.34-18.48c2.44,8.66-8.17,39.38-39,30.69S217.18,143.84,237.71,111c-19.51,24.61-33.6,48.39-33.6,68.72,0,24.39,20.54,44.16,45.89,44.16S295.89,204.1,295.89,179.71Z" style="fill:#195CF1"></path><path d="M288.57,203.65c-7.16,7.46-18.16,13.11-34.86,10.76-40.34-5.69-48.41-48.71-38.73-70.07-6.8,12.52-10.87,24.44-10.87,35.37,0,24.39,20.54,44.16,45.89,44.16A46.31,46.31,0,0,0,288.57,203.65Z" style="opacity:0.1"></path><path d="M257.79,134c.91,3.67,2.91,7,6.9,6.44a5.83,5.83,0,0,0,4.93-5.24,10.12,10.12,0,0,0-1.93-6.72,14.14,14.14,0,0,0-5.15-4.87,3.89,3.89,0,0,0-4.11.32,4.93,4.93,0,0,0-1.52,3.75A27.54,27.54,0,0,0,257.79,134Z" style="fill:#fff;opacity:0.30000000000000004"></path><path d="M288.41,173.39c.67,11-.31,22.94-7.64,31.1-1.43,1.59-3.27,3.07-5.41,3.08-2.79,0-5-2.58-5.66-5.3s-.15-5.55.14-8.32a52.56,52.56,0,0,0-1.77-20c-1.6-5.54-4.14-10.87-4.69-16.61s1.47-12.29,6.65-14.82c5.46-2.65,10.71,2.78,12.92,7.2C286.49,156.82,287.94,165.55,288.41,173.39Z" style="fill:#fff;opacity:0.30000000000000004"></path></g></g></g></svg>